# xmcd CD database file generated by cdsubmit
#
# Track frame offsets:
#	150
#	29775
#	59625
#	87225
#	125925
#	142725
#	170850
#	210900
#	240600
#	274500
#
# Disc length: 4096 seconds
#
# Revision: 0
# Processed by: cddbd v1.5.2PL0 Copyright (c) Steve Scherf et al.
# Submitted via: cdsubmit 1.0 by Cameron Simpson <cs@zip.com.au>
#
DISCID=950ffe0a
DTITLE=Jon Cleary and the Absolute Monster Gentlemen - Mo Hippa (Live)
DYEAR=2008
DGENRE=
TTITLE0=Go To The Mardi Gras
TTITLE1=People Say
TTITLE2=C'mon Second Line
TTITLE3=Tipitina
TTITLE4=Cheatin On You
TTITLE5=Port Street Blues
TTITLE6=Help Me Somebody
TTITLE7=Groove Me
TTITLE8=When U Get Back
TTITLE9=Mo Hippa
EXTD=
EXTT0=
EXTT1=
EXTT2=
EXTT3=
EXTT4=
EXTT5=
EXTT6=
EXTT7=
EXTT8=
EXTT9=
PLAYORDER=
